<svg class="netguru-logo__icon" width="130" height="25" viewBox="0 0 322 62" version="1.1" xmlns="http://www.w3.org/2000/svg" xmlns:xlink="http://www.w3.org/1999/xlink">
      <title>Netguru logo</title>

      <g>
        <path d="M4.35,62.31 C3.45887259,62.31 2.60424345,61.956001 1.97412122,61.3258788 C1.34399898,60.6957566 0.99,59.8411274 0.99,58.95 L0.99,4.35 C0.994728698,2.99465389 1.81330603,1.77485725 3.06575614,1.25682815 C4.31820625,0.738799044 5.75926243,1.02398287 6.72,1.98 L26.72,21.98 C27.6455511,22.8099887 28.0371768,24.0831992 27.7380819,25.2898758 C27.4389869,26.4965523 26.4980576,27.4394668 25.292014,27.7411041 C24.0859704,28.0427414 22.8119375,27.6537999 21.98,26.73 L7.71,12.47 L7.71,58.97 C7.70735179,59.8584765 7.3518641,60.7095108 6.72174101,61.3358832 C6.09161792,61.9622555 5.23847644,62.3126561 4.35,62.31 Z" fill="#00d563"></path>
        <path d="M58.96,62.31 C58.0684021,62.3053391 57.2154457,61.9454418 56.59,61.31 L36.59,41.31 C35.2810853,40.0010851 35.2810854,37.8789149 36.5900001,36.5700001 C37.8989149,35.2610854 40.0210851,35.2610853 41.33,36.57 L55.6,50.83 L55.6,4.33 C55.6,2.47708466 57.1020847,0.975 58.955,0.975 C60.8079153,0.975 62.31,2.47708466 62.31,4.33 L62.31,58.93 C62.3153186,59.8228572 61.9650415,60.6811145 61.3365055,61.3152791 C60.7079696,61.9494438 59.8528691,62.3073585 58.96,62.31 Z" fill="#00d563"></path>
      </g>


        <g class="netguru-logo__type">
          <path d="M121.47,27.75 L121.47,47.02 L114.75,47.02 L114.75,29.95 C114.75,24.8 112.09,21.95 107.61,21.95 C103.29,21.95 99.67,24.8 99.67,30.05 L99.67,47.05 L92.95,47.05 L92.95,16.53 C92.9540704,16.0154436 93.2658756,15.5533496 93.7415085,15.3569873 C94.2171415,15.1606251 94.7641208,15.2681751 95.13,15.63 L99.6,20.1 L99.6,20.1 C101.757301,17.0810885 105.304386,15.3697425 109.01,15.56 C116.3,15.56 121.47,20.58 121.47,27.75 Z" fill="currentColor"></path>
          <path d="M157.91,31.65 C157.91,32.51 157.85,33.38 157.78,34.15 L135.13,34.15 C136.03,39.65 139.9,41.96 144.25,41.96 C147.478614,41.8892936 150.593394,40.7537698 153.11,38.73 L156.44,43.5 C152.920922,46.4594092 148.424527,47.9998078 143.83,47.82 C134.65,47.82 128.15,41.42 128.15,31.69 C128.15,21.96 134.39,15.56 143.41,15.56 C151.99,15.56 157.88,22.08 157.91,31.65 Z M135.16,29.02 L151.06,29.02 C150.32,24.25 147.54,21.47 143.28,21.47 C138.52,21.51 135.86,24.58 135.16,29.02 Z" fill="currentColor"></path>
          <path d="M185.49,22.44 L173.74,22.44 L173.74,35.78 C173.74,39.91 175.92,41.51 178.6,41.51 C180.809896,41.3867482 182.945305,40.6680345 184.78,39.43 L187.44,44.77 C184.681502,46.7038743 181.398798,47.7504325 178.03,47.77 C171.09,47.77 167.03,44.03 167.03,35.87 L167.03,22.44 L160.92,22.44 L160.92,16.36 L167.03,16.36 L167.03,7.08 L173.75,7.08 L173.75,16.36 L185.49,16.36 L185.49,22.44 L185.49,22.44 Z" fill="currentColor"></path>
          <path d="M214.57,20.02 L214.57,16.34 L221.3,16.34 L221.3,44.85 C221.3,54.48 215.09,60.4 204.85,60.4 C200.28,60.4 195.25,59.15 192.02,56.85 L194.45,51.19 C197.566866,53.1573332 201.164674,54.2297568 204.85,54.29 C211.12,54.29 214.58,50.83 214.58,45.14 L214.58,42.68 C212.28,45.62 208.82,47.16 204.37,47.16 C197.37,47.16 190.16,41.27 190.16,31.35 C190.16,21.43 197.36,15.54 204.37,15.54 C208.81,15.56 212.3,17.12 214.57,20.02 Z M197.03,31.35 C197.03,36.5 200.42,40.85 206.08,40.85 C211.49,40.85 215.13,36.72 215.13,31.35 C215.13,25.98 211.48,21.85 206.08,21.85 C200.42,21.86 197.03,26.18 197.03,31.36 L197.03,31.35 Z" fill="currentColor"></path>
          <path d="M288.14,16.42 L286.54,23.04 C284.946613,22.2960953 283.208475,21.9136367 281.45,21.92 C277.19,21.92 274.16,24.92 274.16,30.14 L274.16,47.02 L267.47,47.02 L267.47,16.36 L274.09,16.36 L274.09,19.82 C276.09,16.91 279.24,15.56 282.98,15.56 C284.739831,15.5043652 286.493339,15.7966165 288.14,16.42 L288.14,16.42 Z" fill="currentColor"></path>
          <path d="M230.07,35.62 L230.07,16.35 L236.79,16.35 L236.79,33.41 C236.79,38.56 239.45,41.41 243.93,41.41 C248.25,41.41 251.87,38.56 251.87,33.31 L251.87,16.31 L258.59,16.31 L258.59,46.79 C258.58593,47.3045564 258.274124,47.7666504 257.798491,47.9630127 C257.322858,48.1593749 256.775879,48.0518249 256.41,47.69 L251.94,43.22 L251.94,43.22 C249.782699,46.2389115 246.235614,47.9502575 242.53,47.76 C235.23,47.81 230.07,42.79 230.07,35.62 Z" fill="currentColor"></path>
          <path d="M292.98,35.62 L292.98,16.35 L299.7,16.35 L299.7,33.41 C299.7,38.56 302.36,41.41 306.84,41.41 C311.16,41.41 314.77,38.56 314.77,33.31 L314.77,16.31 L321.49,16.31 L321.49,46.79 C321.48593,47.3045564 321.174124,47.7666504 320.698491,47.9630127 C320.222858,48.1593749 319.675879,48.0518249 319.31,47.69 L314.84,43.22 L314.84,43.22 C312.682699,46.2389115 309.135614,47.9502575 305.43,47.76 C298.13,47.81 292.98,42.79 292.98,35.62 Z" fill="currentColor"></path>
        </g>

    </svg>
